<?xml version="1.0" encoding="UTF-8"?>
<svg xmlns="http://www.w3.org/2000/svg" viewBox="0 0 198 132">
  <rect
    x="1"
    y="1"
    rx="17"
    width="196"
    height="130"
    fill="#016fd0"
    stroke="#016fd0"
    stroke-opacity="0.2"
    stroke-width="1"
  />
  <path
    d="M112.634 110.692 L112.634 63.655 L196.351 63.73 L196.351 76.723 L186.676 87.064 L196.351 97.499 L196.351 110.768
      L180.902 110.768 L172.692 101.708 L164.54 110.802 L112.634 110.692Z"
    fill="#fffffe"
  />
  <path
    d="M118.226 105.535 L118.226 68.832 L149.347 68.832 L149.347 77.287 L128.302 77.287 L128.302 83.027 L148.845 83.027
      L148.845 91.341 L128.302 91.341 L128.302 96.978 L149.347 96.978 L149.347 105.535 L118.226 105.535Z"
    fill="#016fd0"
  />
  <path
    d="M149.192 105.534 L166.413 87.161 L149.191 68.831 L162.52 68.831 L173.043 80.464 L183.596 68.832 L196.351 68.832
      L196.351 69.121 L179.498 87.161 L196.351 105.014 L196.351 105.534 L183.467 105.534 L172.758 93.784 L162.158
      105.534 L149.192 105.534Z"
    fill="#016fd0"
  />
  <path
    d="M116.539 21.906 L136.719 21.906 L143.807 38 L143.807 21.906 L168.72 21.906 L173.017 33.964 L177.328 21.906
      L196.351 21.906 L196.351 68.942 L95.813 68.942 L116.539 21.906Z"
    fill="#fffffe"
  />
  <path
    d="M120.36 27.014 L104.074 63.686 L115.244 63.686 L118.316 56.343 L134.965 56.343 L138.034 63.686 L149.482 63.686
      L133.264 27.014 L120.36 27.014 Z M121.759 48.112 L126.643 36.438 L131.524 48.112 L121.759 48.112Z"
    fill="#016fd0"
  />
  <path
    d="M149.329 63.682 L149.329 27.01 L165.03 27.064 L173.109 49.609 L181.24 27.009 L196.351 27.009 L196.351 63.682
      L186.628 63.768 L186.628 38.578 L177.45 63.682 L168.574 63.682 L159.205 38.492 L159.205 63.682 L149.329 63.682Z"
    fill="#016fd0"
  />
</svg>
