<?xml version="1.0" encoding="UTF-8"?>
<svg xmlns="http://www.w3.org/2000/svg" viewBox="0 0 198 132">
  <rect
    x="1"
    y="1"
    rx="17"
    width="196"
    height="130"
    fill="#ffffff"
    stroke="#000000"
    stroke-opacity="0.2"
    stroke-width="1"
  />
  <path
    d="M54.3353 43.784 C56.1338 41.4718 57.4184 38.3887 57.033 35.3057 C54.3353 35.4341 51.1238 37.1041 49.1969 39.2879
      C47.5269 41.2148 45.9854 44.4263 46.3708 47.3809 C49.4538 47.7663 52.4084 46.0963 54.3353 43.784 M57.033 48.1517
      C52.6653 47.8948 48.94 50.5924 46.8846 50.5924 C44.8293 50.5924 41.6178 48.2802 38.1493 48.2802 C33.6532 48.4086
      29.5425 50.8494 27.2302 54.9601 C22.6056 63.0531 25.9456 74.9999 30.5702 81.5513 C32.754 84.7629 35.4517 88.3597
      38.9201 88.2313 C42.2601 88.1028 43.5447 86.0475 47.5269 86.0475 C51.5092 86.0475 52.6653 88.2313 56.2622
      88.1028 C59.8591 87.9744 62.1714 84.8913 64.3552 81.5513 C66.9244 77.826 67.9521 74.2291 67.9521 74.1007
      C67.8236 73.9722 60.8868 71.403 60.8868 63.4385 C60.7583 56.7585 66.2821 53.547 66.539 53.4186 C63.5845 48.794
      58.703 48.2802 57.033,48.1517"
    fill="#000000"
  />
  <path
    d="M94.8003 39.031 C104.306 39.031 110.858 45.5825 110.858 54.9601 C110.858 64.4661 104.178 71.0176 94.5434 71.0176
      L84.1381 71.0176 L84.1381 87.589 L76.5589 87.589 L76.5589 39.031 L94.8003 39.031 Z M84.1381 64.7231 L92.7449
      64.7231 C99.2964 64.7231 103.022 61.1262 103.022 55.0885 C103.022 48.9225 99.2964 45.454 92.7449 45.454 L84.0096
      45.454 L84.0096 64.7231 L84.1381 64.7231 Z M112.785 77.6975 C112.785 71.5315 117.538 67.6776 126.016 67.1638
      L135.779 66.65 L135.779 63.9523 C135.779 59.97 133.081 57.6577 128.714 57.6577 C124.475 57.6577 121.905 59.7131
      121.263 62.7962 L114.326 62.7962 C114.712 56.3731 120.235 51.6201 128.971 51.6201 C137.578 51.6201 143.101
      56.1162 143.101 63.31 L143.101 87.7174 L136.164 87.7174 L136.164 81.9367 L136.036 81.9367 C133.981 85.919
      129.485 88.3597 124.86 88.3597 C117.666 88.3597 112.785 83.9921 112.785 77.6975 Z M135.779 74.486 L135.779
      71.6599 L127.044 72.1738 C122.676 72.4307 120.235 74.3576 120.235 77.4406 C120.235 80.5237 122.805 82.579
      126.658 82.579 C131.797 82.579 135.779 79.1106 135.779 74.486 Z M149.524 100.82 L149.524 94.9112 C150.038
      95.0397 151.323 95.0397 151.837 95.0397 C155.177 95.0397 156.975 93.6266 158.131 90.0297 C158.131 89.9013
      158.773 87.8459 158.773 87.8459 L145.927 52.3909 L153.764 52.3909 L162.756 81.2944 L162.884 81.2944 L171.876
      52.3909 L179.584 52.3909 L166.353 89.7728 C163.27 98.3796 159.801 101.077 152.479 101.077 C151.965 100.949
      150.167 100.949 149.524 100.82Z"
    fill="#000000"
  />
</svg>
