<?xml version="1.0" encoding="UTF-8"?>
<svg xmlns="http://www.w3.org/2000/svg" viewBox="0 0 198 132">
  <defs>
    <linearGradient
      id="gradient-1"
      x1="0"
      y1="1000"
      x2="1000"
      y2="-730"
      gradientTransform="matrix(0.369555 0 0 0.369555 0 -2.68541)"
      gradientUnits="userSpaceOnUse"
    >
      <stop stop-color="#219947" offset="0" />
      <stop stop-color="#0290ab" offset="0.45" />
      <stop stop-color="#06689c" offset="0.7" />
      <stop stop-color="#002555" offset="1" />
    </linearGradient>
  </defs>
  <rect
    x="1"
    y="1"
    rx="17"
    width="196"
    height="130"
    fill="url(#gradient-1)"
    stroke="url(#gradient-1)"
    stroke-opacity="0.2"
    stroke-width="1"
  />
  <g fill="#ffffff">
    <path
      d="M20.3181 67.1641 C20.3181 45.9701 34.0692 28.7932 61.9632 28.7932 C88.6561 28.7932 102.548 44.7137 103.549
        64.8063 C103.549 64.8248 63.1717 64.8063 63.1717 64.8063 L63.1717 69.3001 C63.1717 69.3001 103.564 69.2927
        103.564 69.3001 C102.677 89.5 89.0885 105.539 61.9669 105.539 C33.7921 105.539 20.3181 88.3581 20.3181
        67.1641Z"
    />
    <path
      d="M162.841 103.462 L108.098 103.462 L108.098 69.3001 L161.336 69.3001 C173.365 69.3001 179.167 77.2825 179.167
        87.1311 L179.167 87.1311 C179.167 96.152 170.546 103.469 162.841 103.462Z"
    />
    <path
      d="M162.841 64.8063 L108.098 64.8063 L108.098 30.6447 L161.336 30.6447 C173.365 30.6447 179.167 38.6271 179.167
        48.4757 L179.167 48.4757 C179.167 57.4929 170.546 64.81 162.841 64.8063Z"
    />
  </g>
</svg>
