<?xml version="1.0" encoding="UTF-8"?>
<svg xmlns="http://www.w3.org/2000/svg" viewBox="0 0 198 132">
  <rect
    x="1"
    y="1"
    rx="17"
    width="196"
    height="130"
    fill="#ffffff"
    stroke="#000000"
    stroke-opacity="0.2"
    stroke-width="1"
  />
  <path
    d="M39.488 44.3163 C43.6868 44.2348 47.7225 45.8246 50.7391 48.719 L59.096 40.3621 C53.7965 35.348 46.7849 32.6167
      39.488 32.6983 C28.3998 32.6983 18.2493 38.9761 13.276 48.882 L23.0188 56.4643 C25.3424 49.4935 31.8241 44.3163
      39.488 44.3163Z"
    fill="#ea4335"
  />
  <path
    d="M23.0188 67.6748 C21.7959 64.0467 21.7959 60.0924 23.0188 56.4236 L23.0188 48.882 L13.276 48.882 C9.07719 57.158
      9.07719 66.9403 13.276 75.2163 L23.0188 67.6748Z"
    fill="#fbbc04"
  />
  <path
    d="M39.488 91.4001 C47.3964 91.4001 54.0819 88.7911 58.9329 84.3069 L49.4754 76.9692 C46.8257 78.7629 43.4422
      79.782 39.488 79.782 C31.8241 79.782 25.3424 74.6048 23.0188 67.6748 L13.276 67.6748 L13.276 75.2571 C18.2493
      85.1223 28.3998 91.4001 39.488 91.4001Z"
    fill="#34a853"
  />
  <path
    d="M67.6567 62.7014 C67.6567 60.7039 67.4936 58.7064 67.1675 56.7497 L39.488 56.7497 L39.488 68.0417 L55.3456
      68.0417 C54.6934 71.6698 52.5736 74.931 49.4754 76.9692 L49.4754 84.3069 L58.9329 84.3069 C64.477 79.2113
      67.6567 71.6698 67.6567 62.7014Z"
    fill="#4285f4"
  />
  <path
    d="M94.1948 67.1856 L94.1948 87.8943 L87.6316 87.8943 L87.6316 36.7748 L105.038 36.7748 C109.237 36.6932 113.273
      38.2831 116.33 41.2182 C119.388 43.9494 121.1 47.9037 121.018 51.9802 C121.1 56.0975 119.388 60.0517 116.33
      62.8237 C113.273 65.718 109.522 67.1856 105.079 67.1856 L94.1948 67.1856 Z M94.1948 43.0526 L94.1948 60.9077
      L105.201 60.9077 C107.647 60.9893 110.012 60.0109 111.683 58.258 C115.148 54.9153 115.189 49.412 111.846 45.9469
      L111.683 45.7839 C110.012 43.9902 107.647 43.0118 105.201 43.0934 L94.1948 43.0526 Z M136.142 51.7764 C140.993
      51.7764 144.825 53.0808 147.638 55.649 C150.451 58.258 151.837 61.8046 151.837 66.3295 L151.837 87.8535 L145.559
      87.8535 L145.559 83.0025 L145.274 83.0025 C142.542 86.9974 138.955 88.9949 134.43 88.9949 C130.598 88.9949
      127.337 87.8535 124.769 85.5707 C122.241 83.4509 120.814 80.312 120.896 77.01 C120.896 73.3819 122.282 70.5283
      125.013 68.3678 C127.745 66.2072 131.413 65.1473 135.979 65.1473 C139.893 65.1473 143.072 65.8811 145.6 67.2671
      L145.6 65.7588 C145.6 63.5167 144.621 61.3969 142.909 59.9702 C141.156 58.4211 138.914 57.565 136.591 57.565
      C132.922 57.565 130.027 59.1141 127.867 62.2122 L122.078 58.5841 C125.217 54.0592 129.905 51.7764 136.142
      51.7764 Z M127.663 77.173 C127.663 78.8852 128.478 80.475 129.824 81.4534 C131.291 82.5948 133.085 83.2063
      134.919 83.1655 C137.691 83.1655 140.341 82.0649 142.298 80.1081 C144.458 78.0699 145.559 75.6647 145.559
      72.8927 C143.521 71.2621 140.667 70.4468 136.998 70.4468 C134.348 70.4468 132.106 71.099 130.313 72.3628 C128.56
      73.6672 127.663 75.2571 127.663 77.173 Z M187.873 52.9178 L165.941 103.304 L159.174 103.304 L167.327 85.693
      L152.897 52.9585 L160.031 52.9585 L170.426 78.0699 L170.589 78.0699 L180.739 52.9585 L187.873 52.9178Z"
    fill="#5f6368"
  />
</svg>
