<?xml version="1.0" encoding="UTF-8"?>
<svg xmlns="http://www.w3.org/2000/svg" viewBox="0 0 198 132">
  <rect
    x="1"
    y="1"
    rx="17"
    width="196"
    height="130"
    fill="#252525"
    stroke="#252525"
    stroke-opacity="0.2"
    stroke-width="1"
  />
  <path
    d="M99.978 32.996 C109.998 40.522 116.478 52.504 116.478 65.999 C116.478 79.495 109.998 91.476 99.978 99.002 C89.96
      91.476 83.478 79.495 83.478 65.999 C83.478 52.504 89.96 40.522 99.978 32.996Z"
    fill="#ff5f00"
  />
  <path
    d="M124.728 107.25 C147.511 107.25 165.978 88.782 165.978 66 C165.978 43.218 147.511 24.75 124.728 24.75 C101.947
      24.75 83.478 43.218 83.478 66 C83.478 88.782 101.947 107.25 124.728 107.25Z"
    fill="#f79e1b"
  />
  <path
    d="M75.229 107.25 C98.011 107.25 116.478 88.782 116.478 66 C116.478 43.218 98.011 24.75 75.228 24.75 C52.447 24.75
      33.978 43.218 33.978 66 C33.978 88.782 52.447 107.25 75.228 107.25 L75.229 107.25Z"
    fill="#eb001b"
  />
</svg>
