<?xml version="1.0" encoding="UTF-8"?>
<svg xmlns="http://www.w3.org/2000/svg" viewBox="0 0 198 132">
  <rect
    x="1"
    y="1"
    rx="17"
    width="196"
    height="130"
    fill="#10298e"
    stroke="#10298e"
    stroke-opacity="0.2"
    stroke-width="1"
  />
  <path
    d="M61.3 59.294 L52.033 59.294 C52.033 57.77 51.853 56.74 51.495 56.204 C50.943 55.434 49.419 55.049 46.923 55.049
      C44.502 55.049 42.897 55.272 42.111 55.716 C41.324 56.161 40.933 57.129 40.937 58.62 C40.937 59.971 41.285
      60.859 41.981 61.283 C42.588 61.6157 43.266 61.7978 43.958 61.814 L45.811 61.944 C49.823 62.211 52.329 62.399
      53.33 62.506 C56.501 62.827 58.801 63.672 60.23 65.039 C61.3758 66.1496 62.0878 67.6324 62.238 69.221 C62.37
      70.381 62.432 71.546 62.424 72.711 C62.424 75.698 62.139 77.883 61.571 79.267 C60.537 81.807 58.215 83.414
      54.603 84.085 C52.3073 84.4316 49.9863 84.5825 47.665 84.536 C42.463 84.536 38.841 84.226 36.798 83.603 C34.4724
      82.9985 32.6116 81.2567 31.855 78.976 C31.395 77.683 31.163 75.529 31.163 72.514 L40.43 72.514 L40.43 73.286
      C40.43 74.896 40.892 75.926 41.814 76.376 C42.542 76.713 43.334 76.886 44.137 76.882 L47.547 76.882 C48.6639
      76.9445 49.7842 76.855 50.877 76.616 C51.6534 76.356 52.2709 75.7592 52.557 74.992 C52.7192 74.4153 52.7966
      73.818 52.787 73.219 C52.787 71.571 52.191 70.576 51.001 70.235 C48.9542 69.9247 46.8916 69.7287 44.823 69.648
      C41.857 69.438 39.798 69.232 38.645 69.03 C35.605 68.461 33.581 67.292 32.572 65.52 C31.662 64.018 31.207 61.74
      31.207 58.688 C31.151 56.808 31.395 54.931 31.93 53.128 C32.3239 51.8247 33.141 50.6899 34.252 49.903 C36.0345
      48.7106 38.1096 48.0292 40.252 47.933 C42.282 47.755 44.532 47.667 47.004 47.667 C50.9 47.667 53.676 47.889
      55.332 48.334 C59.372 49.404 61.392 52.444 61.392 57.452 C61.392 57.86 61.362 58.474 61.299 59.294 L61.3 59.294
      Z M102.111 84.536 L102.111 47.47 L120.7 47.47 C122.663 47.399 124.627 47.607 126.532 48.088 C129.443 48.8956
      131.76 51.1012 132.71 53.969 C133.253 55.526 133.525 57.867 133.525 60.993 C133.525 64.753 133.227 67.455
      132.629 69.099 C131.439 72.353 128.989 74.224 125.278 74.714 C124.841 74.789 122.988 74.853 119.718 74.906
      L118.062 74.962 L112.094 74.962 L112.094 84.537 L102.111 84.537 L102.111 84.536 Z M112.094 66.367 L118.315
      66.367 C120.288 66.297 121.489 66.145 121.917 65.91 C122.582 65.4708 123.015 64.7567 123.097 63.964 C123.246
      63.008 123.31 62.04 123.288 61.073 C123.336 59.8975 123.209 58.7214 122.912 57.583 C122.553 56.52 121.695 55.871
      120.335 55.636 C120.068 55.599 119.423 55.58 118.402 55.58 L112.094 55.58 C112.094 55.58 112.094 66.367 112.094
      66.367 Z M154.796 78.13 L141.458 78.13 L139.666 84.536 L129.343 84.536 L140.512 47.469 L155.562 47.469 L166.837
      84.536 L156.699 84.536 C156.699 84.536 154.796 78.13 154.796 78.13 Z M152.813 70.908 L148.136 54.845 L143.601
      70.908 L152.813 70.908Z"
    fill="#ffffff"
  />
  <path
    d="M88.346 52.683 C92.3056 52.6809 96.0542 54.4678 98.546 57.545 L100.696 52.936 C96.1998 48.7065 89.9218 46.9384
      83.8791 48.2 C77.8365 49.4615 72.7903 53.5938 70.362 59.269 L66.168 59.269 L63.696 64.576 L69.09 64.576 C69.046
      65.07 69.022 65.558 69.022 66.064 C69.021 66.663 69.049 67.261 69.108 67.856 L66.378 67.856 L63.906 73.163
      L70.486 73.163 C73.5033 79.9638 80.264 84.3301 87.704 84.283 C91.4403 84.2897 95.0948 83.189 98.206 81.12
      L98.206 74.652 C95.5005 77.7464 91.5013 79.3943 87.4012 79.1042 C83.3011 78.8141 79.5738 76.6195 77.331 73.175
      L91.089 73.175 L93.56 67.856 L75.323 67.856 C75.2279 67.2077 75.1805 66.5533 75.181 65.898 C75.181 65.447 75.181
      65.002 75.249 64.563 L95.105 64.563 L97.576 59.256 L76.96 59.256 C79.3087 55.1884 83.649 52.6828 88.346 52.683Z"
    fill="#fbbc09"
  />
</svg>
