<?xml version="1.0" encoding="UTF-8"?>
<svg xmlns="http://www.w3.org/2000/svg" viewBox="0 0 702.227 106.667">
  <path
    d="M47.3088 26.6667 L31.7401 26.6667 C22.5245 26.6667 14.5057 32.7989 12.3313 41.5079 L0.225 95.3453 C -1.08385
      101.164 3.48803 106.667 9.63177 106.667 L78.6245 106.667 C84.7172 106.667 89.9907 102.547 91.3036 96.7604
      L104.725 37.6303 C106.002 32.0005 102.02 26.6667 96.0927 26.6667 L47.3088,26.6667"
    fill="var(--stancer-back, #7899d6)"
  />
  <path
    d="M68.6396 9.85463e-06 L130.783 9.85463e-06 C136.64 9.85463e-06 140.993 5.33388 139.731 10.9636 L138.432 16.7552
      L48.9912 16.7552 L49.4631 14.8412 C51.612 6.13228 59.5344 9.85463e-06 68.6396 9.85463e-06 Z M46.5745 26.5511
      L35.1552 72.8453 C34.2568 76.4896 37.0609 80 40.8708 80 L113.944 80 C119.964 80 125.173 75.8803 126.471 70.0937
      L136.236 26.5511 L46.5745,26.5511"
    fill="var(--stancer-accent, #c8e8f9)"
  />
  <path
    d="M94.9197 80 L105.777 26.6683 L46.5421 26.6683 L35.1516 72.8453 C34.2531 76.4896 37.0568 80 40.8672 80 L94.9197,80"
    fill="var(--stancer-heart, #f35c6f)"
  />
  <g fill="var(--stancer-text, #101a2c)">
    <path
      d="M224.32 106.667 C245.832 106.667 261.816 93.6302 261.816 75.7031 C261.816 35.5552 204.004 50.8151 204.004
        29.1849 C204.004 21.4817 211.025 16.4448 221.631 16.4448 C232.985 16.4448 240.304 23.2588 240.603 32.5921
        L258.529 32.5921 C258.529 15.1115 246.28 1.18891e-05 222.229 1.18891e-05 C201.764 1.18891e-05 186.824
        12.2964 186.824 29.3333 C186.824 67.4079 244.488 52.4448 244.488 75.7031 C244.488 84.4437 236.121 90.3697
        224.32 90.3697 C211.772 90.3697 202.809 82.8151 202.809 71.7031 L185.48 71.7031 C185.48 92 201.912 106.667
        224.32,106.667"
    />
    <path
      d="M315.349 48.4448 L315.349 32.7412 L296.228 32.7412 L296.228 13.3333 L279.497 13.3333 L279.497 32.7412
        L265.604 32.7412 L265.604 48.4448 L279.497 48.4448 L279.497 77.9255 C279.497 96.2969 290.253 106.074 306.387
        106.074 C309.075 106.074 312.809 105.777 315.349 105.185 L315.349 89.9255 C313.707 90.3697 311.764 90.5183
        309.972 90.5183 C301.904 90.5183 296.228 86.8151 296.228 77.6303 L296.228 48.4448 L315.349,48.4448"
    />
    <path
      d="M381.625 32.7412 L381.625 45.4817 C376.397 36.4448 367.433 31.2588 355.781 31.2588 C336.361 31.2588 320.825
        48 320.825 68.8896 C320.825 89.7771 336.361 106.667 355.781 106.667 C367.433 106.667 376.397 101.482 381.625
        92.4437 L381.625 105.185 L398.356 105.185 L398.356 32.7412 L381.625 32.7412 Z M359.367 90.9636 C346.968
        90.9636 337.257 81.1849 337.257 68.8896 C337.257 56.7412 346.968 46.9631 359.367 46.9631 C372.065 46.9631
        381.625 56.4437 381.625 68.8896 C381.625 81.4817 372.065 90.9636 359.367,90.9636"
    />
    <path
      d="M451.045 31.2588 C441.336 31.2588 433.568 36 428.937 44.1484 L428.937 32.7412 L412.355 32.7412 L412.355
        105.185 L428.937 105.185 L428.937 65.9255 C428.937 54.5183 436.108 47.1115 447.013 47.1115 C457.619 47.1115
        464.64 54.5183 464.64 65.9255 L464.64 105.185 L481.371 105.185 L481.371 63.8516 C481.371 43.7036 469.719
        31.2588 451.045,31.2588"
    />
    <path
      d="M529.983 106.667 C547.76 106.667 563.145 95.1104 565.088 78.6667 L548.059 78.6667 C546.265 85.9255 538.647
        90.8151 529.983 90.8151 C517.883 90.8151 508.621 81.3333 508.621 69.0364 C508.621 56.5921 517.883 47.1115
        529.983 47.1115 C538.647 47.1115 546.116 52 547.908 58.6667 L564.939 58.6667 C562.697 42.9631 547.611
        31.2588 529.983 31.2588 C508.621 31.2588 492.188 47.5552 492.188 69.0364 C492.188 90.5183 508.621 106.667
        529.983,106.667"
    />
    <path
      d="M647.085 67.4079 C647.085 46.2219 631.101 31.2588 611.383 31.2588 C590.319 31.2588 573.737 47.5552 573.737
        68.5921 C573.737 90.2229 590.319 106.667 611.681 106.667 C629.608 106.667 643.5 96.5922 646.188 81.3333
        L629.459 81.3333 C627.964 87.5563 620.943 91.7031 611.98 91.7031 C599.58 91.7031 591.961 84.4437 590.319
        72.8896 L646.637 72.8896 C646.936 71.4079 647.085 69.3333 647.085 67.4079 Z M590.916 60.2969 C593.456
        50.9631 600.627 44.8885 610.485 44.8885 C620.495 44.8885 627.964 51.2588 629.011 60.2969 L590.916,60.2969"
    />
    <path
      d="M695.351 31.2588 C686.685 31.2588 679.964 35.4079 675.631 42.3703 L675.631 32.7412 L659.051 32.7412 L659.051
        105.185 L675.631 105.185 L675.631 66.5183 C675.631 53.4817 684.296 46.2219 694.903 46.2219 C697.292 46.2219
        699.832 46.6667 702.223 47.2588 L702.223 32.1484 C699.981 31.7036 697.591 31.2588 695.351,31.2588"
    />
  </g>
</svg>
