<?xml version="1.0" encoding="UTF-8"?>
<svg xmlns="http://www.w3.org/2000/svg" viewBox="0 0 523 80">
  <defs>
    <filter
      id="filter-0"
      x="24.5342"
      y="17.2656"
      width="58.7486"
      height="44.7335"
      filterUnits="userSpaceOnUse"
      color-interpolation-filters="sRGB"
    >
      <feFlood flood-opacity="0" result="BackgroundImageFix" />
      <feBlend
        mode="normal"
        in="SourceGraphic"
        in2="BackgroundImageFix"
        result="shape"
      />
      <feGaussianBlur stdDeviation="2" result="effect1_foregroundBlur" />
    </filter>
    <linearGradient
      id="gradient-0"
      x1="57.2417"
      y1="35"
      x2="1.04096"
      y2="80.6657"
      gradientUnits="userSpaceOnUse"
    >
      <stop stop-color="#215dd2" offset="0" />
      <stop stop-color="#79a7ff" offset="1" />
    </linearGradient>
    <linearGradient
      id="gradient-1"
      x1="82.8616"
      y1="7.24891"
      x2="41.5286"
      y2="53.322"
      gradientUnits="userSpaceOnUse"
    >
      <stop stop-color="#d0e9ff" offset="0" />
      <stop stop-color="#ff5b58" offset="1" />
    </linearGradient>
  </defs>
  <path
    d="M35.6559 20.0001 L24.0866 20.0001 C17.2385 20.0001 11.2793 24.599 9.66347 31.131 L0.667038 71.5091 C -0.305315
      75.8733 3.09227 80 7.65767 80 L58.9275 80 C63.4549 80 67.3734 76.9102 68.3492 72.5708 L78.3223 28.2229 C79.2718
      24.0007 76.3133 20.0001 71.9083 20.0001 L35.6559 20.0001Z"
    fill="url(#gradient-0)"
  />
  <path
    d="M51.5088 2.0186e-06 L62.1834 1.552e-06 L97.689 0 C102.041 -1.90241e-07 105.276 4.00066 104.338 8.22279 L103.373
      12.5663 H36.9078 L37.2586 11.131 C38.8551 4.59893 44.7428 -2.70476e-06 51.5088 2.0186e-06 Z M35.1123 19.913
      L26.6264 54.6335 C25.9584 57.3667 28.0424 59.9999 30.8735 59.9999 H85.1758 C89.649 59.9999 93.5205 56.9101
      94.4846 52.5707 L101.741 19.913 H35.1123Z"
    fill="#d0e9ff"
  />
  <g filter="url(#filter-0)">
    <path
      d="M71.5633 57.9991 L79.2828 21.2656 L70.6614 21.2656 L36.6953 21.2656 L28.6596 52.6327 C27.9916 55.3659
        30.0756 57.9991 32.9067 57.9991 H71.5633Z"
      fill="url(#gradient-1)"
    />
  </g>
  <g fill="#001834">
    <path
      d="M167.196 79.9999 C183.182 79.9999 195.06 70.2222 195.06 56.7777 C195.06 26.6666 152.099 38.1111 152.099
        21.8889 C152.099 16.1111 157.316 12.3333 165.198 12.3333 C173.635 12.3333 179.074 17.4444 179.296 24.4444
        H192.618 C192.618 11.3333 183.515 0 165.642 0 C150.434 0 139.333 9.22221 139.333 22 C139.333 50.5555 182.183
        39.3333 182.183 56.7777 C182.183 63.3333 175.966 67.7777 167.196 67.7777 C157.871 67.7777 151.211 62.1111
        151.211 53.7777 H138.333 C138.333 68.9999 150.545 79.9999 167.196 79.9999Z"
    />
    <path
      d="M234.841 36.3333 V24.5555 H220.632 V9.99999 H208.199 V24.5555 H197.875 V36.3333 H208.199 V58.4444 C208.199
        72.2222 216.192 79.5555 228.181 79.5555 C230.179 79.5555 232.954 79.3333 234.841 78.8888 V67.4444 C233.62
        67.7777 232.177 67.8888 230.845 67.8888 C224.851 67.8888 220.632 65.1111 220.632 58.2222 V36.3333 H234.841Z"
    />
    <path
      d="M284.092 24.5555 V34.1111 C280.207 27.3333 273.546 23.4444 264.887 23.4444 C250.456 23.4444 238.911 36
        238.911 51.6666 C238.911 67.3333 250.456 79.9999 264.887 79.9999 C273.546 79.9999 280.207 76.111 284.092
        69.3333 V78.8888 H296.525 V24.5555 H284.092 Z M267.551 68.2222 C258.338 68.2222 251.122 60.8888 251.122
        51.6666 C251.122 42.5555 258.338 35.2222 267.551 35.2222 C276.987 35.2222 284.092 42.3333 284.092 51.6666
        C284.092 61.1111 276.987 68.2222 267.551 68.2222Z"
    />
    <path
      d="M335.68 23.4444 C328.464 23.4444 322.691 27 319.25 33.1111 V24.5555 H306.928 V78.8888 H319.25 V49.4444
        C319.25 40.8889 324.579 35.3333 332.682 35.3333 C340.564 35.3333 345.782 40.8889 345.782 49.4444 V78.8888
        H358.215 V47.8888 C358.215 32.7778 349.556 23.4444 335.68 23.4444Z"
    />
    <path
      d="M394.339 79.9999 C407.549 79.9999 418.983 71.3333 420.426 58.9999 H407.771 C406.439 64.4444 400.778 68.1111
        394.339 68.1111 C385.347 68.1111 378.464 60.9999 378.464 51.7777 C378.464 42.4444 385.347 35.3333 394.339
        35.3333 C400.778 35.3333 406.328 39 407.66 44 H420.315 C418.65 32.2222 407.438 23.4444 394.339 23.4444
        C378.464 23.4444 366.253 35.6666 366.253 51.7777 C366.253 67.8888 378.464 79.9999 394.339 79.9999Z"
    />
    <path
      d="M481.36 50.5555 C481.36 34.6666 469.482 23.4444 454.828 23.4444 C439.176 23.4444 426.854 35.6666 426.854
        51.4444 C426.854 67.6666 439.176 79.9999 455.05 79.9999 C468.372 79.9999 478.696 72.4444 480.694 60.9999
        H468.261 C467.151 65.6666 461.933 68.7777 455.272 68.7777 C446.059 68.7777 440.397 63.3333 439.176 54.6666
        H481.027 C481.249 53.5555 481.36 52 481.36 50.5555 Z M439.62 45.2222 C441.507 38.2222 446.836 33.6666
        454.162 33.6666 C461.6 33.6666 467.151 38.4444 467.928 45.2222 H439.62Z"
    />
    <path
      d="M517.227 23.4444 C510.788 23.4444 505.793 26.5555 502.573 31.7778 V24.5555 H490.251 V78.8888 H502.573
        V49.8888 C502.573 40.1111 509.012 34.6666 516.894 34.6666 C518.67 34.6666 520.557 35 522.333 35.4444
        V24.1111 C520.668 23.7778 518.892 23.4444 517.227 23.4444Z"
    />
  </g>
</svg>
