<?xml version="1.0" encoding="UTF-8"?>
<svg xmlns="http://www.w3.org/2000/svg" viewBox="0 0 198 132">
  <rect
    x="1"
    y="1"
    rx="17"
    width="196"
    height="130"
    fill="#ffffff"
    stroke="#000000"
    stroke-opacity="0.2"
    stroke-width="1"
  />
  <path
    d="M23.977 48.794 C19.661 46.427 14.736 44.524 9.229 43.202 L9.459 42.173 L32.039 42.173 C35.1 42.28 37.584 43.201
      38.392 46.453 L43.299 69.849 L44.803 76.896 L58.547 42.173 L73.387 42.173 L51.327 93.039 L36.487 93.039 C36.487
      93.039 23.977 48.794 23.977 48.794 Z M84.303 93.094 L70.27 93.094 L79.048 42.173 L93.082 42.173 L84.304 93.093
      L84.303 93.094 Z M135.179 43.418 L133.271 54.414 L132.002 53.873 C129.462 52.843 126.11 51.815 121.547 51.923
      C116.006 51.923 113.522 54.143 113.464 56.31 C113.464 58.694 116.47 60.265 121.379 62.595 C129.465 66.225
      133.215 70.666 133.159 76.463 C133.045 87.026 123.459 93.853 108.732 93.853 C102.436 93.798 96.372 92.549 93.08
      91.143 L95.044 79.712 L96.892 80.525 C101.454 82.423 104.456 83.235 110.06 83.235 C114.101 83.235 118.433 81.662
      118.488 78.25 C118.488 76.03 116.642 74.403 111.212 71.91 C105.9 69.472 98.798 65.41 98.912 58.096 C98.972
      48.184 108.732 41.25 122.592 41.25 C128.021 41.25 132.412 42.388 135.179 43.418 Z M153.833 75.054 L165.498
      75.054 C164.921 72.508 162.263 60.32 162.263 60.32 L161.282 55.932 C160.589 57.828 159.377 60.916 159.436 60.807
      C159.436 60.807 154.988 72.129 153.833 75.054 Z M171.156 42.173 L182.478 93.093 L169.484 93.093 C169.484 93.093
      168.212 87.243 167.81 85.454 L149.79 85.454 C149.27 86.808 146.845 93.093 146.845 93.093 L132.119 93.093
      L152.966 46.398 C154.409 43.093 156.953 42.173 160.301 42.173 L171.156 42.173Z"
    fill="#171e6c"
  />
</svg>
